<svg xmlns="http://www.w3.org/2000/svg" viewBox="0 0 1400 640" fill="none" role="img" aria-hidden="true">

  <!-- ═══ SPIRAL TAIL ═══ -->

  <!-- Outermost ring — dark lime green -->
  <path fill-rule="evenodd" fill="#5fa829" d="
    M 255,18
    C 140,18 46,112 46,228
    C 46,344 140,438 255,438
    C 370,438 464,344 464,228
    C 464,112 370,18 255,18 Z
    M 255,88
    C 333,88 398,153 398,232
    C 398,311 333,376 255,376
    C 177,376 112,311 112,232
    C 112,153 177,88 255,88 Z
  "/>

  <!-- Middle ring — bright teal-green -->
  <path fill-rule="evenodd" fill="#2dc87a" d="
    M 255,108
    C 322,108 376,162 376,230
    C 376,298 322,352 255,352
    C 188,352 134,298 134,230
    C 134,162 188,108 255,108 Z
    M 255,162
    C 292,162 322,192 322,230
    C 322,268 292,298 255,298
    C 218,298 188,268 188,230
    C 188,192 218,162 255,162 Z
  "/>

  <!-- Centre disc — dark lime -->
  <circle cx="255" cy="230" r="62" fill="#5fa829"/>
  <!-- Centre void — shows through (navy in footer) -->
  <circle cx="255" cy="230" r="37" fill="#0c344d" opacity="0.001"/>
  <!-- Centre jewel — bright green -->
  <circle cx="255" cy="230" r="20" fill="#2dc87a"/>

  <!-- ═══ TAIL-TO-BODY BRIDGE ═══ -->
  <path d="M 260,428
    C 258,450 255,470 250,490
    C 244,512 236,525 230,534
    L 310,542
    C 320,528 328,510 332,488
    C 337,464 335,444 330,434
    Z" fill="#1cb888"/>

  <!-- ═══ BODY ═══ -->

  <!-- Body main mass -->
  <path d="M 210,535
    C 222,502 240,476 280,460
    C 328,441 410,442 500,441
    C 600,440 710,440 820,437
    C 900,435 965,429 1015,428
    C 1058,427 1090,436 1100,456
    L 1105,476
    C 1102,512 1082,545 1042,560
    C 995,577 895,583 780,583
    C 655,583 522,579 400,574
    C 296,568 224,558 200,543
    C 191,536 203,533 210,535 Z"
    fill="#1cb888"/>

  <!-- Body dorsal shadow strip -->
  <path d="M 270,465
    C 335,448 430,442 530,441
    C 645,440 755,440 858,437
    C 930,435 972,430 1015,428
    L 1015,448
    C 972,450 930,454 858,456
    C 755,458 645,460 530,461
    C 430,461 335,467 270,480 Z"
    fill="#18a070" opacity="0.45"/>

  <!-- Body belly highlight -->
  <path d="M 210,556
    C 260,566 360,573 500,578
    C 645,583 785,583 910,578
    C 980,575 1035,563 1060,548
    L 1075,530
    C 1052,550 998,564 910,568
    C 780,573 635,573 500,568
    C 368,563 265,555 218,545 Z"
    fill="#30e0a8" opacity="0.22"/>

  <!-- Body-head transition neck shadow -->
  <path d="M 990,435
    C 978,445 972,462 972,480
    C 972,500 978,520 988,534
    L 1006,542
    C 994,528 988,508 988,484
    C 988,462 992,445 1002,435 Z"
    fill="#0c5c82" opacity="0.6"/>

  <!-- ═══ DORSAL SPOTS ═══ -->
  <circle cx="400" cy="458" r="15" fill="#84bd2a" opacity="0.72"/>
  <circle cx="452" cy="450" r="12" fill="#84bd2a" opacity="0.62"/>
  <circle cx="498" cy="445" r="10" fill="#84bd2a" opacity="0.52"/>
  <circle cx="540" cy="442" r="8"  fill="#84bd2a" opacity="0.43"/>
  <circle cx="578" cy="439" r="6.5" fill="#84bd2a" opacity="0.36"/>
  <circle cx="612" cy="437" r="5.5" fill="#84bd2a" opacity="0.30"/>

  <!-- ═══ HEAD ═══ -->

  <!-- Head deep shadow layer -->
  <path d="M 1002,338
    C 1035,326 1072,332 1098,354
    C 1142,385 1165,428 1158,466
    C 1151,504 1122,530 1084,540
    C 1050,548 1012,540 990,517
    C 963,490 958,454 967,426
    C 973,405 982,356 1002,338 Z"
    fill="#0b5c84"/>

  <!-- Head main bright blue -->
  <path d="M 1008,348
    C 1038,337 1072,343 1095,363
    C 1133,393 1150,432 1143,465
    C 1136,497 1110,520 1076,528
    C 1045,534 1013,526 994,504
    C 971,479 967,447 975,422
    C 981,403 990,360 1008,348 Z"
    fill="#2199ce"/>

  <!-- Head upper highlight -->
  <path d="M 1025,356
    C 1048,348 1072,352 1090,368
    C 1118,390 1132,422 1126,452
    C 1122,470 1112,486 1098,498
    L 1080,510
    C 1100,496 1115,475 1118,450
    C 1123,420 1108,386 1082,365
    C 1064,351 1042,349 1025,356 Z"
    fill="#4fc8e8" opacity="0.45"/>

  <!-- Dorsal crest / fin -->
  <path d="M 1018,345 C 1028,295 1044,305 1048,344 Z" fill="#0c344d"/>
  <path d="M 1022,347 C 1034,290 1052,308 1055,346 Z" fill="#082a40" opacity="0.85"/>

  <!-- ═══ EYE ═══ -->
  <!-- Outer scleral ring -->
  <circle cx="1086" cy="410" r="44" fill="#0c6080"/>
  <!-- Iris -->
  <circle cx="1086" cy="410" r="34" fill="#082840"/>
  <!-- Primary catchlight -->
  <circle cx="1100" cy="398" r="13" fill="#c8ecf8"/>
  <!-- Secondary catchlight -->
  <circle cx="1094" cy="406" r="5.5" fill="#e4f6fc" opacity="0.65"/>

  <!-- Smile crease -->
  <path d="M 1012,480 C 1026,492 1050,494 1070,486"
    stroke="#082840" stroke-width="4.5" fill="none" stroke-linecap="round"/>

  <!-- ═══ LEGS ═══ -->

  <!-- Front leg -->
  <path d="M 332,568 L 320,615 C 316,622 322,626 330,624 C 336,626 342,622 338,615 C 342,622 348,626 354,624 C 362,622 364,615 358,608 L 352,568 Z"
    fill="#18a070"/>

  <!-- Hind leg -->
  <path d="M 524,576 L 512,623 C 508,630 514,634 522,632 C 528,634 534,630 530,623 C 534,630 540,634 546,632 C 554,630 556,623 550,616 L 544,576 Z"
    fill="#18a070"/>

</svg>
